<svg xmlns="http://www.w3.org/2000/svg" viewBox="0 0 217.61 28.69"><defs><style>.cls-1{fill:#454545;}</style></defs><g id="Lag_2" data-name="Lag 2"><g id="Lag_1-2" data-name="Lag 1"><g id="Group_8" data-name="Group 8"><path id="Path_7" data-name="Path 7" class="cls-1" d="M217.61,28.52c-2.89,0-5.79.06-8.68,0a23.16,23.16,0,0,1-3.8-.62,3,3,0,0,1-2.56-2.81c-.18-1.51-.34-3-.38-4.56-.06-2.77,0-5.55,0-8.32v-1.4h-2.6V8.91c1.72-.38,3.78-.22,4.52-2.21a43.89,43.89,0,0,0,1.33-5.16h3.16v7.2h6.59v2h-6.49c0,1.31,0,2.46,0,3.62.06,3.29.15,6.58.21,9.87a1.69,1.69,0,0,0,1.48,1.86h.28c1.8.07,3.61.06,5.41.06.63,0,1.31-.22,1.55.64Z"/><path id="Path_8" data-name="Path 8" class="cls-1" d="M61.75,10.84V26.52l2.63.12v1.59H52.72V26.67h2.55v-25l-2.55-.14V0H61.6V8.53c.5,0,.88,0,1.26,0,3.33.14,6.68.12,10,.51,2.53.3,3.21,1.11,3.35,3.65.21,4,.16,7.94.21,11.92v1.91l2.67.13v1.58H67.44V26.65l2.47-.12c0-.47.07-.86.07-1.26,0-4.05-.09-8.11-.17-12.16,0-1.68-.33-2.11-2-2.23C65.81,10.73,63.8,10.84,61.75,10.84Z"/><path id="Path_9" data-name="Path 9" class="cls-1" d="M121,26.59v1.63H109.31V26.66l2.43-.13c-1.11-1.63-2.11-3.11-3.12-4.58-.68-1-1.46-1.94-2-3a2.22,2.22,0,0,0-2.9-1.12v8.69l2.55.13v1.55H94.56V26.62h2.59v-25H94.61V.05h8.85V15.42a3,3,0,0,0,3.31-1c1-1.29,2.19-2.44,3.46-3.84l-2.29-.15V8.87h11.64v1.51c-.15,0-.31.14-.44.12A4,4,0,0,0,115,12.43,42.17,42.17,0,0,1,111.68,16a.93.93,0,0,0-.25,1.29.76.76,0,0,0,.11.14c2.09,2.85,4.12,5.75,6.22,8.59a1.91,1.91,0,0,0,1.18.59A12.75,12.75,0,0,0,121,26.59Z"/><path id="Path_10" data-name="Path 10" class="cls-1" d="M8.89,15.39a3,3,0,0,0,3.36-1.06c1-1.26,2.13-2.37,3.38-3.72l-2.31-.18V8.89H25v1.44c-.13.06-.25.16-.34.14a4.39,4.39,0,0,0-4.46,2.14,40.64,40.64,0,0,1-3,3.19,1.14,1.14,0,0,0-.34,1.57,1.59,1.59,0,0,0,.2.24q2.86,3.8,5.56,7.75a2.44,2.44,0,0,0,2.45,1.27c1.43-.1,1.44,0,1.26,1.58H14.75V26.66L17,26.55a10.72,10.72,0,0,0-.55-1c-1.57-2.28-3.19-4.54-4.7-6.86a1.84,1.84,0,0,0-2.12-.93,1,1,0,0,0-.67.71C9,21.11,9,23.76,9,26.53l2.66.14.07,1.54H0V26.62H2.5V1.73H0V0H8.89Z"/><path id="Path_11" data-name="Path 11" class="cls-1" d="M29.62,1.68l-2.77-.13V0h9V8.46c2,0,3.91-.1,5.78,0a57.26,57.26,0,0,1,5.84.78A3.1,3.1,0,0,1,50,11.75a28.47,28.47,0,0,1-.08,13.7A3.23,3.23,0,0,1,47,28a82,82,0,0,1-9.13.59c-2.4-.15-4.8-.43-7.18-.82-.86-.1-1.08-.5-1.08-1.34,0-7.75,0-15.5,0-23.25ZM36,10.85v15.6c2.08,0,4.11,0,6.14,0,.91,0,1.34-.64,1.47-1.47a36.07,36.07,0,0,0,0-12.69c-.1-.53-.77-1.33-1.23-1.36-2.1-.15-4.21-.07-6.38-.07Z"/><path id="Path_12" data-name="Path 12" class="cls-1" d="M139.17,10.48h-2.53V8.84h11.59v1.6h-2.68v1.41q0,7.47,0,15c0,.63-.07,1.06-.83,1.16a51.94,51.94,0,0,1-16.6.12c-2.63-.52-3.29-1.17-3.4-3.85-.17-4.17-.16-8.35-.23-12.53,0-.35,0-.71-.06-1.22h-2.58V8.86h11.71c0,.46,0,.92.06,1.52l-2.45.12c-.05.09-.15.19-.15.29.05,4.46.06,8.92.18,13.38.05,1.83.42,2.22,2.21,2.34s3.77,0,5.73,0Z"/><path id="Path_13" data-name="Path 13" class="cls-1" d="M158.22,26.42a24.08,24.08,0,0,1,2.67.48c.11,0,0,.81,0,1.32H149.24V26.59h2.62c0-.56.06-1,.06-1.41,0-4.91,0-9.81,0-14.71,0-.89.22-1.26,1.16-1.38a51.72,51.72,0,0,1,16-.12c3,.53,3.63,1.23,3.76,4.32.12,2.8.1,5.63.13,8.44,0,1.56,0,3.12,0,4.79l2.64.13v1.56H164V26.62h2.35a4,4,0,0,0,.17-.76c-.05-4.22-.07-8.44-.19-12.65-.06-2.15-.34-2.44-2.47-2.6-1.59-.12-3.21,0-4.82,0-.86,0-.81.57-.81,1.15v12.3C158.22,24.88,158.22,25.68,158.22,26.42Z"/><path id="Path_14" data-name="Path 14" class="cls-1" d="M177.93,27.83l.31-1.86h.94c3.66.13,7.32.3,11,.36,1.53,0,2-.54,2.06-2.06.19-3.8,0-4-3.8-4.47-2.67-.32-5.35-.68-8-1.19-2.43-.46-3.14-1.41-3.18-3.92a28.82,28.82,0,0,1,.2-3.35A2.43,2.43,0,0,1,179.68,9a78.91,78.91,0,0,1,8.41-.63c2.73,0,5.45.38,8.18.61a3.86,3.86,0,0,1,.75.24l-.36,1.59c-3.63-.07-7.11-.18-10.61-.19-.92,0-2.1-.15-2.47,1a5.78,5.78,0,0,0,.21,4.66c.18.33.81.51,1.26.58,3.21.51,6.45.92,9.65,1.47,2.94.51,3.45,1.18,3.58,4.16.2,4.75-.71,5.66-5.46,6a73.91,73.91,0,0,1-14.1-.56A7.36,7.36,0,0,1,177.93,27.83Z"/></g></g></g></svg>
